<?xml version="1.0" encoding="UTF-8" standalone="no"?>
<!DOCTYPE svg PUBLIC "-//W3C//DTD SVG 1.1//EN" "http://www.w3.org/Graphics/SVG/1.1/DTD/svg11.dtd">
<!-- Created with Vectornator (http://vectornator.io/) -->
<svg height="100%" stroke-miterlimit="10" style="fill-rule:nonzero;clip-rule:evenodd;stroke-linecap:round;stroke-linejoin:round;" version="1.1" viewBox="45.3574 44.6609 1903.08 1905.86" width="100%" xml:space="preserve" xmlns="http://www.w3.org/2000/svg" xmlns:xlink="http://www.w3.org/1999/xlink">
<defs/>
<g id="Mermaid">
<g opacity="1">
<path d="M1648.17 1112.29C1669.24 1150.81 1803.78 1361.71 1388.62 1866.08C1131.2 2178.82 812.873 1456.36 612.797 1615.1C426.981 1762.52 1074.83 1117.77 777.75 1442.68C707.138 1519.91 997.645 1843.56 1162.23 1726.98C1427.75 1538.89 1214.28 1278.87 1268.98 1147.24C1319.8 1024.96 1530.9 897.814 1648.17 1112.29Z" fill="#70bf4f" fill-rule="nonzero" opacity="1" stroke="#1b160b" stroke-linecap="butt" stroke-linejoin="round" stroke-width="10"/>
<g opacity="1">
<path d="M723.19 1536.02C723.19 1536.02 872.687 1453.78 957.68 1326.21C1042.67 1198.65 1060.19 1094.02 1060.19 1094.02C1060.19 1094.02 945.604 1142.18 863.418 1255.25C781.231 1368.33 744.173 1457.22 744.173 1457.22C744.173 1457.22 769.498 1356.7 764.668 1217.5C759.837 1078.3 724.852 900.418 724.852 900.418C724.852 900.418 660.238 1068.92 653.781 1209.73C647.324 1350.54 699.025 1463.65 699.025 1463.65C699.025 1463.65 651.608 1352.94 548.016 1233C444.425 1113.06 266.197 982.69 266.197 982.69C266.197 982.69 346.321 1183 436.489 1311.92C526.658 1440.84 645.333 1499.57 645.333 1499.57C645.333 1499.57 538.206 1466.41 389.539 1470.55C240.873 1474.7 50.6671 1516.15 50.6671 1516.15C50.6671 1516.15 222.084 1568.18 369.144 1575.07C516.204 1581.96 638.907 1543.72 638.907 1543.72C638.907 1543.72 549.79 1562.65 458.15 1626.27C366.51 1689.9 272.347 1798.22 272.347 1798.22C272.347 1798.22 408.888 1789.28 524.038 1718.52C639.188 1647.76 723.19 1536.02 723.19 1536.02Z" fill="#ec0014" fill-rule="nonzero" stroke="none"/>
<path d="M724.25 895.375C723.637 895.43 723.028 895.681 722.469 895.937C720.156 896.996 719.273 900.844 718.5 902.938C718.174 903.821 717.855 904.709 717.531 905.594C717.137 906.674 716.734 907.762 716.344 908.844C715.785 910.39 715.238 911.92 714.688 913.469C714.045 915.275 713.384 917.097 712.75 918.906C703.487 945.345 695.064 972.093 687.375 999.031C676.517 1037.07 667.157 1075.57 660.094 1114.5C654.136 1147.34 649.759 1180.56 648.5 1213.94C646.875 1257 650.462 1300.2 658.25 1342.56C661.716 1361.41 666.116 1380.11 671.25 1398.59C659.614 1378.12 647.278 1358.06 634.281 1338.44C605.446 1294.91 573.582 1253.19 538.5 1214.5C513.591 1187.03 487.091 1161.04 459.875 1135.88C428.103 1106.49 395.242 1078.28 361.781 1050.84C337.645 1031.05 313.162 1011.7 288.312 992.812C286.543 991.467 284.774 990.121 283 988.781C281.496 987.646 279.976 986.506 278.469 985.375C277.429 984.595 276.385 983.808 275.344 983.031C274.508 982.408 273.681 981.778 272.844 981.156C271.102 979.863 268.374 977.26 265.938 977.531C265.335 977.598 264.703 977.677 264.156 977.937C263.494 978.253 262.881 978.688 262.375 979.219C261.931 979.685 261.605 980.286 261.344 980.875C260.219 983.413 262.574 987.535 263.469 989.719C263.894 990.756 264.323 991.776 264.75 992.812C265.272 994.078 265.787 995.361 266.312 996.625C266.929 998.109 267.536 999.58 268.156 1001.06C269.017 1003.12 269.883 1005.17 270.75 1007.22C281.926 1033.67 293.611 1059.9 305.719 1085.94C328.723 1135.4 353.15 1184.25 380.156 1231.66C399.574 1265.74 420.174 1299.39 443.719 1330.81C461.91 1355.09 481.978 1377.97 503.5 1399.34C531.191 1426.84 561.314 1451.91 593.469 1474.03C599.285 1478.03 605.198 1481.9 611.156 1485.69C608.61 1485.13 606.083 1484.47 603.531 1483.94C574.382 1477.85 544.892 1473.38 515.281 1470.25C475.034 1466 434.525 1464.26 394.062 1465.19C346.008 1466.29 298.033 1470.91 250.375 1477C197.492 1483.76 144.828 1492.32 92.4688 1502.34C88.8776 1503.03 85.2757 1503.73 81.6875 1504.44C78.5551 1505.05 75.4424 1505.69 72.3125 1506.31C69.9759 1506.78 67.6163 1507.24 65.2812 1507.72C63.596 1508.06 61.9343 1508.4 60.25 1508.75C58.8729 1509.03 57.5013 1509.31 56.125 1509.59C55.2227 1509.78 54.3081 1510 53.4063 1510.19C51.5266 1510.58 48.2027 1510.9 46.8438 1512.53C46.4644 1512.99 46.0516 1513.45 45.8438 1514C45.5623 1514.75 45.3841 1515.57 45.4063 1516.38C45.4272 1517.13 45.7007 1517.87 46 1518.56C46.2061 1519.04 46.5641 1519.42 46.9062 1519.81C48.2213 1521.32 51.8458 1522.01 53.5312 1522.5C54.2343 1522.71 54.9527 1522.92 55.6562 1523.12C62.4554 1525.1 69.2643 1526.98 76.0938 1528.84C102.412 1536.03 128.919 1542.59 155.531 1548.59C193.557 1557.17 231.843 1564.6 270.406 1570.31C303.049 1575.15 335.933 1578.8 368.906 1580.34C412.416 1582.38 456.059 1580.66 499.344 1575.91C516.341 1574.04 533.306 1571.64 550.188 1568.84C544.955 1571.16 539.725 1573.51 534.562 1575.97C507.987 1588.64 482.328 1603.3 458.031 1619.94C436.127 1634.94 415.33 1651.53 395.219 1668.84C371.3 1689.43 348.312 1711.12 326.031 1733.47C311.066 1748.48 296.404 1763.77 282.094 1779.41C278.684 1783.13 275.296 1786.88 271.938 1790.66C271.231 1791.45 270.547 1792.27 269.844 1793.06C268.791 1794.26 267.502 1795.42 267.188 1797.06C266.926 1798.43 267.111 1799.8 267.844 1801C269.928 1804.42 273.87 1803.45 277.094 1803.16C278.06 1803.07 279.035 1802.97 280 1802.88C281.192 1802.76 282.372 1802.63 283.563 1802.5C284.97 1802.35 286.375 1802.2 287.781 1802.03C289.978 1801.77 292.181 1801.5 294.375 1801.22C296.917 1800.89 299.463 1800.52 302 1800.16C340.146 1794.69 377.901 1785.93 414.531 1773.97C448.279 1762.95 481.202 1749.1 512.156 1731.66C532.427 1720.24 551.795 1707.27 570.469 1693.41C598.673 1672.47 625.239 1649.34 650.375 1624.81C667.722 1607.89 684.394 1590.25 700.344 1572C709.588 1561.42 718.75 1550.71 727.219 1539.5C737.613 1533.69 747.698 1527.34 757.688 1520.88C775.603 1509.28 793.081 1496.98 810.094 1484.09C858.915 1447.12 904.621 1405.02 942.125 1356.44C955.243 1339.45 967.093 1321.57 978.313 1303.28C994.535 1276.84 1009.24 1249.42 1022.19 1221.22C1036.68 1189.65 1049.14 1157.01 1058.38 1123.5C1060.46 1115.92 1062.41 1108.29 1064.03 1100.59C1064.31 1099.26 1064.59 1097.93 1064.84 1096.59C1065.24 1094.5 1065.68 1092.7 1064.03 1090.78C1060.86 1087.09 1056.26 1090.21 1052.97 1091.75C1052.03 1092.19 1051.12 1092.62 1050.19 1093.06C1049.07 1093.6 1047.95 1094.14 1046.84 1094.69C1045.09 1095.55 1043.33 1096.42 1041.59 1097.31C1039.56 1098.36 1037.55 1099.42 1035.53 1100.5C1008.53 1114.88 982.825 1131.79 958.688 1150.56C931.374 1171.81 906.016 1195.64 883.438 1221.87C868.921 1238.74 855.913 1256.74 843.219 1275C827.277 1297.93 812.049 1321.37 797.625 1345.28C783.274 1369.07 769.684 1393.31 757.125 1418.09C757.016 1418.31 756.922 1418.53 756.812 1418.75C757.295 1415.87 757.89 1413.01 758.344 1410.12C763.349 1378.28 766.649 1346.15 768.531 1313.97C770.243 1284.69 770.764 1255.35 770 1226.03C769.018 1188.34 765.949 1150.69 761.938 1113.22C757.625 1072.93 752.139 1032.79 745.906 992.75C741.959 967.397 737.717 942.083 733.094 916.844C732.732 914.87 732.367 912.879 732 910.906C731.742 909.521 731.48 908.134 731.219 906.75C731.044 905.822 730.864 904.896 730.688 903.969C730.276 901.809 730.047 897.874 728 896.438C727.502 896.088 726.96 895.758 726.375 895.594C725.684 895.399 724.965 895.311 724.25 895.375ZM723.344 919.812C723.509 920.719 723.679 921.624 723.844 922.531C726.307 936.098 728.642 949.68 730.906 963.281C737.643 1003.75 743.645 1044.35 748.531 1085.09C753.982 1130.55 758.353 1176.22 759.75 1222C760.911 1260.04 759.925 1298.13 756.875 1336.06C754.286 1368.27 750.293 1400.43 744.312 1432.19C743.835 1434.72 743.32 1437.25 742.812 1439.78C742.397 1441.85 741.97 1443.9 741.531 1445.97C741.316 1446.98 741.097 1448.02 740.875 1449.03C740.692 1449.87 740.532 1450.7 740.344 1451.53C740.196 1452.19 740.027 1452.82 739.875 1453.47C739.796 1453.81 739.704 1454.57 739.531 1455.25C739.337 1456.02 739.068 1456.75 739.125 1457.25C739.186 1457.79 739.018 1458.46 739.406 1458.84C740.811 1460.23 742.298 1461.81 744.219 1462.25C745.463 1462.54 746.629 1461.39 747.75 1460.78C748.04 1460.62 748.177 1460.26 748.375 1460C748.822 1459.4 749.127 1458.49 749.406 1457.84C749.538 1457.54 749.648 1457.24 749.781 1456.94C749.944 1456.57 750.086 1456.22 750.25 1455.84C750.434 1455.43 750.659 1454.98 750.844 1454.56C751.193 1453.78 751.552 1452.97 751.906 1452.19C752.33 1451.25 752.758 1450.31 753.188 1449.38C753.867 1447.89 754.527 1446.41 755.219 1444.94C756.033 1443.2 756.859 1441.48 757.688 1439.75C769.953 1414.12 783.529 1389.11 797.875 1364.59C812.56 1339.5 828.129 1314.91 844.5 1290.88C856.778 1272.85 869.273 1254.91 883.062 1238C898.925 1218.55 916.372 1200.38 935 1183.56C961.787 1159.38 991.069 1137.89 1022.16 1119.56C1030.48 1114.66 1038.95 1109.97 1047.56 1105.59C1049.36 1104.68 1051.22 1103.89 1053.03 1103C1052.29 1106.2 1051.69 1109.45 1050.88 1112.62C1048.33 1122.58 1045.42 1132.44 1042.28 1142.22C1032.77 1171.84 1021 1200.74 1007.53 1228.78C995.971 1252.84 983.111 1276.22 969.156 1298.97C958.325 1316.63 946.819 1333.91 934.156 1350.31C897.198 1398.19 852.142 1439.62 804.031 1476.06C787.216 1488.8 769.958 1500.94 752.25 1512.41C742.296 1518.85 732.212 1525.23 721.844 1531C720.735 1531.29 719.681 1531.86 718.938 1532.84C710.081 1544.6 700.462 1555.79 690.75 1566.84C674.7 1585.11 657.905 1602.74 640.438 1619.66C616.395 1642.94 591.036 1664.92 564.156 1684.88C548.057 1696.83 531.415 1708.11 514.125 1718.28C496.593 1728.59 478.357 1737.73 459.656 1745.72C421.411 1762.06 381.393 1774.14 340.688 1782.59C326.091 1785.62 311.397 1788.2 296.625 1790.22C292.865 1790.73 289.088 1791.22 285.313 1791.66C290.697 1785.71 296.135 1779.79 301.625 1773.94C318.306 1756.15 335.426 1738.75 352.969 1721.81C370.681 1704.71 388.84 1688.07 407.625 1672.16C424.863 1657.55 442.591 1643.51 461.156 1630.62C485.839 1613.49 512.008 1598.47 539.125 1585.53C562.854 1574.21 587.324 1564.42 612.406 1556.53C613.935 1556.05 615.496 1555.63 617.031 1555.16C618.716 1554.74 620.412 1554.31 622.094 1553.88C624.064 1553.37 626.003 1552.84 627.969 1552.31C629.209 1551.98 630.449 1551.65 631.688 1551.31C632.718 1551.03 633.753 1550.73 634.781 1550.44C636.458 1549.96 638.144 1549.47 639.812 1548.97C639.862 1548.95 639.916 1548.92 639.969 1548.91C639.966 1548.91 640.01 1548.9 640 1548.91C640.398 1548.79 640.851 1548.69 641.188 1548.5C641.492 1548.33 642.009 1548.28 642.094 1547.94C642.694 1545.54 643.901 1542.95 643.156 1540.59C642.692 1539.13 640.5 1539.06 639.094 1538.44C638.848 1538.33 637.959 1538.55 637.219 1538.72C637.178 1538.73 637.134 1538.74 637.094 1538.75C637.071 1538.76 637.053 1538.74 637.031 1538.75C636.785 1538.81 636.42 1538.86 636.344 1538.88C634.117 1539.39 631.899 1539.95 629.688 1540.53C628.337 1540.88 626.971 1541.23 625.625 1541.59C624.03 1542.03 622.433 1542.48 620.844 1542.94C619.016 1543.46 617.196 1543.98 615.375 1544.53C614.883 1544.68 614.398 1544.85 613.906 1545C609.795 1546.01 605.681 1547.02 601.562 1547.97C581.454 1552.6 561.166 1556.48 540.781 1559.69C487.183 1568.12 432.752 1572.03 378.5 1570.16C333.204 1568.59 288.053 1562.94 243.406 1555.31C200.454 1547.98 157.802 1538.82 115.531 1528.25C101.215 1524.67 86.9383 1520.95 72.7188 1517C79.4902 1515.64 86.2484 1514.27 93.0313 1512.97C119.793 1507.82 146.659 1503.09 173.562 1498.75C215.525 1491.98 257.647 1486.19 299.938 1481.91C337.676 1478.08 375.617 1475.46 413.563 1475.44C473.811 1475.4 534.158 1480.84 593.281 1492.53C607.037 1495.25 620.728 1498.31 634.281 1501.91C635.297 1502.18 636.299 1502.44 637.312 1502.72C638.138 1502.94 638.958 1503.17 639.781 1503.41C640.412 1503.58 641.058 1503.76 641.688 1503.94C642.018 1504.03 642.536 1504.1 643 1504.25C643.733 1504.49 644.449 1504.81 645.062 1504.78C645.617 1504.75 646.291 1504.95 646.719 1504.59C648.191 1503.37 649.915 1502.1 650.5 1500.28C650.922 1498.97 649.916 1497.56 649.406 1496.28C649.267 1495.93 648.872 1495.75 648.594 1495.5C648.011 1494.97 647.031 1494.56 646.375 1494.22C646.035 1494.04 645.715 1493.9 645.375 1493.72C644.966 1493.5 644.499 1493.25 644.094 1493.03C643.561 1492.75 643.095 1492.48 642.562 1492.19C641.947 1491.85 641.364 1491.56 640.75 1491.22C639.685 1490.63 638.621 1490.04 637.562 1489.44C635.86 1488.47 634.157 1487.49 632.469 1486.5C613.548 1475.44 595.387 1463.08 577.875 1449.91C531.074 1414.71 488.839 1373.17 453.5 1326.44C431.444 1297.27 412.095 1266.09 393.781 1234.47C368.035 1190.02 344.718 1144.18 322.719 1097.78C310.42 1071.84 298.574 1045.67 287.188 1019.31C284.149 1012.28 281.182 1005.22 278.219 998.156C286.698 1004.57 295.141 1011.03 303.531 1017.56C330.532 1038.57 357.137 1060.09 383.281 1082.16C409.618 1104.38 435.49 1127.14 460.656 1150.69C484.917 1173.38 508.549 1196.79 530.875 1221.41C560.715 1254.3 588.191 1289.46 613.469 1325.97C634.995 1357.06 654.936 1389.27 672.875 1422.56C677.941 1431.96 682.864 1441.46 687.531 1451.06C689.831 1455.8 692.134 1460.6 694.219 1465.41C694.235 1465.44 694.233 1465.49 694.25 1465.53C694.26 1465.55 694.272 1465.57 694.281 1465.59C694.359 1465.77 694.619 1466.33 694.656 1466.31C697.83 1465.22 701.014 1464.13 704.031 1462.66C704.278 1462.54 703.89 1462.11 703.813 1461.84C703.778 1461.73 703.733 1461.62 703.688 1461.5C703.716 1461.56 703.626 1461.37 703.594 1461.31C699.076 1451.34 695.293 1440.85 691.719 1430.47C685.778 1413.21 680.684 1395.65 676.312 1377.94C663.485 1325.95 656.975 1272.23 658.531 1218.66C659.747 1176.8 665.987 1135.13 674.375 1094.16C682.452 1054.7 692.706 1015.65 704.438 977.125C710.289 957.91 716.595 938.778 723.344 919.812Z" fill="#1b160b" stroke="none"/>
</g>
<path d="M1540.97 776.196C1542.1 826.005 1673.6 902.559 1740.09 841.04C1811.08 775.358 1769.4 554.027 1869.55 475.836C1901.94 450.549 1922.24 430.53 1922.81 414.686C1923.1 406.88 1893.24 366.798 1893.24 366.798C1893.24 366.798 1957.29 281.086 1940.7 265.377C1912.57 238.751 1856.75 346.993 1856.75 346.993C1856.75 346.993 1867.67 243.655 1837.78 241.528C1808.59 239.451 1813.7 353.538 1811.8 366.875C1791.93 506.486 1702.39 706.476 1691.88 726.573C1676.42 756.102 1538.33 658.743 1540.97 776.196Z" fill="#a208ba" fill-rule="nonzero" opacity="1" stroke="#1b160b" stroke-linecap="butt" stroke-linejoin="round" stroke-width="10"/>
<path d="M1313.55 1099.64C1495.21 976.073 1588.52 1110.09 1618.52 1136.13C1676.18 1186.17 1655.45 1042.01 1605.39 916.028C1564.74 813.708 1568.11 800.38 1568.11 800.38C1568.11 800.38 1682.42 769.372 1660.9 688.382C1644.03 624.886 1572.49 616.454 1531.1 569.631C1464.24 494.002 1520.58 433.787 1520.58 433.787C1520.58 433.787 1566.73 435.968 1579.1 423.805L1604.95 376.278C1604.95 376.278 1643.97 367.274 1641.44 346.326C1638.92 325.378 1611.43 327.522 1604.3 292.021C1596.99 255.671 1633.23 258.921 1581.5 219.33C1536.88 185.185 1523.46 113.981 1440.14 121.096C1282.13 134.59 1358.15 274.495 1357.77 478.636C1357.58 580.32 1299.64 611.661 1351.88 729.71C1478.08 1014.88 1184.21 1187.61 1313.55 1099.64Z" fill="#3897f1" fill-rule="nonzero" opacity="1" stroke="#1b160b" stroke-linecap="butt" stroke-linejoin="round" stroke-width="10"/>
<path d="M1410.01 586.13C1441.33 593.412 1281.93 1110.63 1204.51 1143.87C1168.42 1159.36 1097.11 1170.28 1094.69 1119.48C1088.35 985.913 1210.08 1055.07 1210.08 1055.07C1210.08 1055.07 1269.45 953.602 1266.16 891.356C1256.61 710.709 1268.13 553.143 1410.01 586.13Z" fill="#ffd335" fill-rule="nonzero" opacity="1" stroke="#1b160b" stroke-linecap="butt" stroke-linejoin="round" stroke-width="10"/>
<path d="M1625.12 268.672C1625.12 268.672 1634.07 155.425 1582.3 105.421C1530.53 55.4168 1418.03 68.6546 1418.03 68.6546C1418.03 68.6546 1384.54 24.2581 1312.97 71.2177C1241.41 118.177 1222.04 198.971 1134.64 240.363C1047.23 281.755 812.873 233.13 812.873 233.13C812.873 233.13 869.7 336.743 1156.97 372.094C1187.66 375.871 1116.69 409.105 825.595 356.575C817.027 355.029 1029.34 511.632 1149.99 511.107C1522.85 509.484 1461.69 245.746 1474.63 247.002C1487.57 248.259 1501.97 276.763 1501.97 276.763L1548.82 274.943C1548.82 274.943 1567.71 250.253 1583.31 248.314C1598.91 246.376 1625.12 268.672 1625.12 268.672Z" fill="#fd8d33" fill-rule="nonzero" opacity="1" stroke="#1b160b" stroke-linecap="butt" stroke-linejoin="round" stroke-width="10"/>
</g>
</g>
</svg>
