<?xml version="1.0" encoding="UTF-8" standalone="no"?>
<!DOCTYPE svg PUBLIC "-//W3C//DTD SVG 1.1//EN" "http://www.w3.org/Graphics/SVG/1.1/DTD/svg11.dtd">
<!-- Created with Vectornator (http://vectornator.io/) -->
<svg height="1024.0px" stroke-miterlimit="10" style="fill-rule:nonzero;clip-rule:evenodd;stroke-linecap:round;stroke-linejoin:round;" version="1.1" viewBox="0 0 1024 1024" width="1024.0px" xml:space="preserve" xmlns="http://www.w3.org/2000/svg" xmlns:xlink="http://www.w3.org/1999/xlink">
<defs/>
<g id="Layer-1">
<path d="M512 630.547L275.835 494.197M512 630.547L748.165 494.197M512 630.547L512 903.247M512 903.247L275.835 766.897M512 903.247L748.165 766.897M748.165 494.197L748.165 766.897M275.835 494.197L275.835 766.897M512 357.847L275.835 494.197M512 357.847L748.165 494.197M512 85.1463L512 357.847M512 85.1463L415.586 181.56M512 85.1463L608.414 181.56M39.6694 903.564L275.835 767.214M39.6694 903.564L171.373 938.854M39.6694 903.564L74.9594 771.86M984.331 903.564L748.165 767.214M984.331 903.564L852.627 938.854M984.331 903.564L949.041 771.86" fill="none" opacity="1" stroke="#ffffff" stroke-linecap="round" stroke-linejoin="round" stroke-width="75"/>
</g>
</svg>
